<svg width="68" height="68" viewBox="0 0 68 68" fill="none" xmlns="http://www.w3.org/2000/svg">
<path fill-rule="evenodd" clip-rule="evenodd" d="M38.5102 10.9888C38.5102 11.0986 38.5089 11.2174 38.5064 11.3448C38.5528 11.2262 38.5971 11.1159 38.6391 11.0145C41.4977 4.11314 45.0176 1.76229 47.0112 2.58809C49.0046 3.41359 49.6654 7.96604 46.9729 14.4664C46.9308 14.5679 46.8842 14.6772 46.8331 14.7939C46.9214 14.702 47.0045 14.6171 47.0822 14.5394C52.3642 9.25739 56.5158 8.43248 58.0416 9.95836C59.5674 11.4838 58.4357 15.9427 53.4606 20.9178C53.3829 20.9955 53.298 21.0786 53.2061 21.1669C53.3228 21.1158 53.4321 21.0691 53.5336 21.0271C60.4349 18.1685 64.5861 18.9951 65.4119 20.9888C66.2377 22.982 63.4859 26.6683 56.9855 29.3609C56.8841 29.4029 56.7738 29.4472 56.6552 29.4936C56.7825 29.4911 56.9014 29.4898 57.0112 29.4898C64.4811 29.4898 68 31.8421 68 34C68.0002 36.1575 64.0471 38.5102 57.0112 38.5102C56.9014 38.5102 56.7825 38.5089 56.6551 38.5064C56.7738 38.5528 56.8841 38.5971 56.9855 38.6391C63.8869 41.4977 66.2377 45.0176 65.4119 47.0112C64.5864 49.0046 60.034 49.6654 53.5336 46.9729C53.4321 46.9309 53.3228 46.8842 53.2061 46.8331C53.298 46.9214 53.3829 47.0045 53.4606 47.0822C58.7426 52.3642 59.5675 56.5158 58.0416 58.0416C56.5161 59.5674 52.0573 58.4357 47.0822 53.4606C47.0045 53.3829 46.9214 53.298 46.8331 53.2061C46.8842 53.3228 46.9309 53.4321 46.9729 53.5336C49.8315 60.4349 49.0049 64.5861 47.0112 65.4119C45.018 66.2377 41.3317 63.4859 38.6391 56.9855C38.5971 56.8841 38.5528 56.7738 38.5064 56.6552C38.5089 56.7826 38.5102 56.9014 38.5102 57.0112C38.5102 64.4811 36.1579 68 34 68C31.8425 68.0002 29.4898 64.0471 29.4898 57.0112C29.4898 56.9014 29.4911 56.7825 29.4936 56.6551C29.4472 56.7738 29.4029 56.8841 29.3609 56.9855C26.5023 63.8869 22.9824 66.2377 20.9888 65.4119C18.9954 64.5864 18.3346 60.034 21.0271 53.5336C21.0691 53.4321 21.1158 53.3228 21.1669 53.2061C21.0786 53.298 20.9955 53.3829 20.9178 53.4606C15.6358 58.7426 11.4843 59.5675 9.95837 58.0416C8.43265 56.5161 9.56427 52.0573 14.5394 47.0822C14.6171 47.0045 14.702 46.9214 14.7939 46.8331C14.6772 46.8842 14.5679 46.9309 14.4664 46.9729C7.5651 49.8315 3.4139 49.0049 2.5881 47.0112C1.76229 45.018 4.51408 41.3317 11.0145 38.6391C11.1159 38.5971 11.2262 38.5528 11.3448 38.5064C11.2174 38.5089 11.0986 38.5102 10.9888 38.5102C3.51888 38.5102 5.09741e-09 36.1579 5.09741e-09 34C-0.000163909 31.8425 3.95286 29.4898 10.9888 29.4898C11.0986 29.4898 11.2175 29.4911 11.3448 29.4936C11.2262 29.4472 11.1159 29.4029 11.0144 29.3609C4.11313 26.5023 1.76228 22.9824 2.58808 20.9888C3.41358 18.9954 7.96602 18.3346 14.4664 21.0271C14.5679 21.0691 14.6772 21.1158 14.7939 21.1669C14.702 21.0786 14.6171 20.9955 14.5394 20.9178C9.25741 15.6358 8.43249 11.4843 9.95837 9.95837C11.4839 8.43265 15.9427 9.56427 20.9178 14.5394C20.9955 14.6171 21.0786 14.702 21.1669 14.7938C21.1158 14.6772 21.0691 14.5679 21.0271 14.4664C18.1685 7.5651 18.9951 3.4139 20.9887 2.5881C22.982 1.76229 26.6683 4.51408 29.3609 11.0145C29.4029 11.1159 29.4472 11.2262 29.4936 11.3449C29.4911 11.2175 29.4898 11.0986 29.4898 10.9888C29.4898 3.51888 31.8421 5.11079e-09 34 5.11079e-09C36.1575 -0.000164124 38.5102 3.95286 38.5102 10.9888Z" fill="white"/>
</svg>
